<svg width="2054" height="2053" xmlns="http://www.w3.org/2000/svg" xmlns:xlink="http://www.w3.org/1999/xlink" xml:space="preserve" overflow="hidden"><defs><clipPath id="clip0"><rect x="1173" y="211" width="2054" height="2053"/></clipPath></defs><g clip-path="url(#clip0)" transform="translate(-1173 -211)"><path d="M1609.89 832.504 1609.89 854.085C1634.04 854.87 1652.53 858.567 1665.38 865.175 1678.22 871.784 1693.03 885.59 1709.77 906.593L1726.71 927.596 1726.71 1485.89C1726.71 1527.9 1718.15 1557.65 1701 1575.15 1683.88 1592.65 1653.5 1601.6 1609.89 1601.99L1609.89 1620.64 1609.89 1641.66 1891.06 1641.66 1891.06 1620.64 1890.82 1620.64 1890.82 1601.99 1872.13 1601.99C1845.27 1601.99 1821.42 1594.01 1800.59 1578.07 1779.76 1562.13 1769.35 1531.4 1769.35 1485.89L1769.35 983.015 2304.93 1641.66 2321.15 1641.66 2324.78 1641.66 2401.58 1641.66 2404.4 1641.66 2529.43 1641.66 2529.43 1619.58 2502.55 1619.58C2479.84 1619.58 2461.82 1615.7 2448.47 1607.94 2435.13 1600.19 2426.17 1591.14 2421.59 1580.8 2417.01 1570.45 2414.73 1544.59 2414.73 1503.22L2414.73 1255.58 2438.02 1255.58C2480.64 1255.58 2518.77 1267.81 2552.43 1292.28 2586.09 1316.74 2606.7 1367.36 2614.26 1444.15L2635.17 1444.15 2635.17 1037.78 2614.26 1037.78C2609.48 1081.14 2599.22 1115.54 2583.49 1141.01 2567.76 1166.47 2548.54 1184.57 2525.84 1195.31 2503.13 1206.06 2473.86 1211.42 2438.02 1211.42L2414.73 1211.42 2414.73 879.047 2490 879.047C2554.52 879.047 2598.73 882.035 2622.62 888 2666.04 898.741 2699.19 917.236 2722.09 943.496 2745 969.755 2759.23 1010.13 2764.81 1064.63L2789.3 1064.63 2789.3 832.504 2428.75 832.504 2404.4 832.504 2401.58 832.504 2321.15 832.504 2167.08 832.504 2167.08 854.085C2211.09 853.311 2242.43 864.205 2261.12 886.757 2274.75 903.485 2281.57 935.568 2281.57 983.015L2281.57 1323.13 1890.82 832.504ZM2200 211C2767.2 211 3227 670.58 3227 1237.5 3227 1804.42 2767.2 2264 2200 2264 1632.8 2264 1173 1804.42 1173 1237.5 1173 670.58 1632.8 211 2200 211Z" fill-rule="evenodd"/></g></svg>