<svg width="1081" height="742" xmlns="http://www.w3.org/2000/svg" xmlns:xlink="http://www.w3.org/1999/xlink" xml:space="preserve" overflow="hidden"><defs><clipPath id="clip0"><rect x="1116" y="1160" width="1081" height="742"/></clipPath></defs><g clip-path="url(#clip0)" transform="translate(-1116 -1160)"><path d="M1116 1160 1373.49 1160 1731.63 1609.91 1731.63 1298.02C1731.63 1254.51 1725.38 1225.09 1712.89 1209.75 1695.76 1189.07 1667.03 1179.08 1626.7 1179.79L1626.7 1160 1767.91 1160 1841.63 1160 1844.21 1160 1866.53 1160 2197 1160 2197 1372.86 2174.55 1372.86C2169.44 1322.88 2156.39 1285.86 2135.4 1261.78 2114.41 1237.7 2084.02 1220.74 2044.23 1210.89 2022.33 1205.42 1981.81 1202.68 1922.67 1202.68L1853.68 1202.68 1853.68 1507.47 1875.03 1507.47C1907.88 1507.47 1934.71 1502.55 1955.52 1492.7 1976.33 1482.85 1993.94 1466.25 2008.36 1442.9 2022.78 1419.55 2032.18 1388 2036.56 1348.24L2055.73 1348.24 2055.73 1720.88 2036.56 1720.88C2029.63 1650.47 2010.74 1604.05 1979.89 1581.62 1949.04 1559.18 1914.09 1547.96 1875.03 1547.96L1853.68 1547.96 1853.68 1775.05C1853.68 1812.99 1855.77 1836.7 1859.97 1846.19 1864.17 1855.67 1872.38 1863.97 1884.61 1871.08 1896.84 1878.2 1913.36 1881.75 1934.17 1881.75L1958.81 1881.75 1958.81 1902 1844.21 1902 1841.63 1902 1771.24 1902 1767.91 1902 1753.04 1902 1262.15 1298.02 1262.15 1759.16C1262.15 1800.89 1271.69 1829.07 1290.79 1843.69 1309.88 1858.31 1331.74 1865.62 1356.36 1865.62L1373.49 1865.62 1373.49 1882.73 1373.71 1882.73 1373.71 1902 1116 1902 1116 1882.73 1116 1882.73 1116 1865.62C1155.97 1865.27 1183.81 1857.06 1199.51 1841.01 1215.22 1824.96 1223.07 1797.68 1223.07 1759.16L1223.07 1247.2 1207.54 1227.94C1192.2 1208.68 1178.63 1196.02 1166.86 1189.96 1155.08 1183.9 1138.13 1180.51 1116 1179.79Z" fill-rule="evenodd" fill="#fff"/></g></svg>